<svg width="1600" height="960" viewBox="0 0 1600 960" fill="none" xmlns="http://www.w3.org/2000/svg">
  <defs>
    <linearGradient id="bg" x1="120" y1="80" x2="1480" y2="920" gradientUnits="userSpaceOnUse">
      <stop stop-color="#0A1738"/>
      <stop offset="0.55" stop-color="#144B8E"/>
      <stop offset="1" stop-color="#2F7BC9"/>
    </linearGradient>
  </defs>
  <rect width="1600" height="960" fill="url(#bg)"/>
  <circle cx="280" cy="180" r="220" fill="#9FD0FF" fill-opacity="0.26"/>
  <circle cx="1350" cy="210" r="240" fill="#B8DAFF" fill-opacity="0.18"/>

  <rect x="84" y="130" width="848" height="700" rx="34" fill="rgba(255,255,255,0.14)" stroke="rgba(255,255,255,0.18)"/>
  <text x="138" y="228" fill="white" font-size="56" font-family="SF Pro Display, Arial" font-weight="600">Orbit Calendar</text>
  <text x="138" y="280" fill="rgba(255,255,255,0.76)" font-size="24" font-family="SF Pro Display, Arial">Professional scheduling, booking, and calendar actions in one native macOS app.</text>
  <circle cx="150" cy="370" r="6" fill="#8ECEFF"/>
  <text x="174" y="378" fill="rgba(255,255,255,0.82)" font-size="22" font-family="SF Pro Display, Arial">Protected local account flow</text>
  <circle cx="150" cy="430" r="6" fill="#8ECEFF"/>
  <text x="174" y="438" fill="rgba(255,255,255,0.82)" font-size="22" font-family="SF Pro Display, Arial">Native desktop calendar workspace</text>
  <circle cx="150" cy="490" r="6" fill="#8ECEFF"/>
  <text x="174" y="498" fill="rgba(255,255,255,0.82)" font-size="22" font-family="SF Pro Display, Arial">Agent actions with confirmation</text>
  <circle cx="150" cy="550" r="6" fill="#8ECEFF"/>
  <text x="174" y="558" fill="rgba(255,255,255,0.82)" font-size="22" font-family="SF Pro Display, Arial">Booking page with timezone-aware slots</text>

  <rect x="978" y="180" width="536" height="600" rx="32" fill="rgba(255,255,255,0.12)" stroke="rgba(255,255,255,0.16)"/>
  <rect x="1022" y="224" width="210" height="44" rx="16" fill="rgba(255,255,255,0.16)"/>
  <rect x="1244" y="224" width="210" height="44" rx="16" fill="rgba(255,255,255,0.08)"/>
  <text x="1090" y="252" fill="white" font-size="18" font-family="SF Pro Display, Arial" font-weight="600">Log In</text>
  <text x="1310" y="252" fill="rgba(255,255,255,0.72)" font-size="18" font-family="SF Pro Display, Arial">Sign Up</text>

  <text x="1022" y="336" fill="white" font-size="42" font-family="SF Pro Display, Arial" font-weight="600">Welcome back</text>

  <rect x="1022" y="388" width="448" height="62" rx="18" fill="rgba(255,255,255,0.10)" stroke="rgba(255,255,255,0.10)"/>
  <text x="1048" y="427" fill="rgba(255,255,255,0.72)" font-size="20" font-family="SF Pro Display, Arial">Email</text>
  <rect x="1022" y="470" width="448" height="62" rx="18" fill="rgba(255,255,255,0.10)" stroke="rgba(255,255,255,0.10)"/>
  <text x="1048" y="509" fill="rgba(255,255,255,0.72)" font-size="20" font-family="SF Pro Display, Arial">Password</text>
  <rect x="1022" y="568" width="164" height="54" rx="18" fill="#4FA0FF"/>
  <text x="1078" y="602" fill="white" font-size="20" font-family="SF Pro Display, Arial" font-weight="600">Log In</text>
</svg>
