<svg width="1600" height="960" viewBox="0 0 1600 960" fill="none" xmlns="http://www.w3.org/2000/svg">
  <defs>
    <linearGradient id="bg" x1="170" y1="60" x2="1370" y2="920" gradientUnits="userSpaceOnUse">
      <stop stop-color="#0A1B3E"/>
      <stop offset="0.5" stop-color="#113F7A"/>
      <stop offset="1" stop-color="#276DB7"/>
    </linearGradient>
    <radialGradient id="glow1" cx="0" cy="0" r="1" gradientUnits="userSpaceOnUse" gradientTransform="translate(260 150) rotate(45) scale(340 240)">
      <stop stop-color="#7BBCFF" stop-opacity="0.55"/>
      <stop offset="1" stop-color="#7BBCFF" stop-opacity="0"/>
    </radialGradient>
    <radialGradient id="glow2" cx="0" cy="0" r="1" gradientUnits="userSpaceOnUse" gradientTransform="translate(1270 170) rotate(135) scale(360 260)">
      <stop stop-color="#B9D9FF" stop-opacity="0.34"/>
      <stop offset="1" stop-color="#B9D9FF" stop-opacity="0"/>
    </radialGradient>
    <linearGradient id="glass" x1="250" y1="160" x2="1330" y2="860" gradientUnits="userSpaceOnUse">
      <stop stop-color="white" stop-opacity="0.17"/>
      <stop offset="1" stop-color="white" stop-opacity="0.06"/>
    </linearGradient>
  </defs>

  <rect width="1600" height="960" fill="url(#bg)"/>
  <rect width="1600" height="960" fill="url(#glow1)"/>
  <rect width="1600" height="960" fill="url(#glow2)"/>

  <g opacity="0.12">
    <path d="M0 100H1600M0 180H1600M0 260H1600M0 340H1600M0 420H1600M0 500H1600M0 580H1600M0 660H1600M0 740H1600M0 820H1600" stroke="white"/>
    <path d="M120 0V960M240 0V960M360 0V960M480 0V960M600 0V960M720 0V960M840 0V960M960 0V960M1080 0V960M1200 0V960M1320 0V960M1440 0V960" stroke="white"/>
  </g>

  <rect x="34" y="34" width="1532" height="892" rx="36" fill="url(#glass)" stroke="rgba(255,255,255,0.2)"/>

  <rect x="64" y="64" width="260" height="832" rx="28" fill="rgba(255,255,255,0.12)" stroke="rgba(255,255,255,0.18)"/>
  <text x="96" y="120" fill="white" font-size="34" font-family="SF Pro Display, Arial" font-weight="600">Orbit</text>
  <text x="96" y="152" fill="rgba(255,255,255,0.72)" font-size="16" font-family="SF Pro Display, Arial">Calendar intelligence for macOS</text>

  <rect x="88" y="218" width="212" height="58" rx="18" fill="rgba(255,255,255,0.16)" stroke="rgba(255,255,255,0.18)"/>
  <text x="118" y="255" fill="white" font-size="18" font-family="SF Pro Display, Arial">Calendar</text>
  <rect x="88" y="290" width="212" height="58" rx="18" fill="rgba(255,255,255,0.06)"/>
  <text x="118" y="327" fill="rgba(255,255,255,0.74)" font-size="18" font-family="SF Pro Display, Arial">Booking</text>
  <rect x="88" y="362" width="212" height="58" rx="18" fill="rgba(255,255,255,0.06)"/>
  <text x="118" y="399" fill="rgba(255,255,255,0.74)" font-size="18" font-family="SF Pro Display, Arial">Settings</text>

  <rect x="96" y="722" width="196" height="132" rx="22" fill="rgba(255,255,255,0.12)" stroke="rgba(255,255,255,0.14)"/>
  <text x="116" y="762" fill="rgba(255,255,255,0.76)" font-size="14" font-family="SF Pro Display, Arial">Focused on calmer scheduling</text>
  <text x="116" y="806" fill="white" font-size="26" font-family="SF Pro Display, Arial" font-weight="600">Less admin.</text>
  <text x="116" y="838" fill="white" font-size="26" font-family="SF Pro Display, Arial" font-weight="600">Cleaner weeks.</text>

  <text x="362" y="104" fill="rgba(255,255,255,0.72)" font-size="14" font-family="SF Pro Display, Arial" letter-spacing="2">ORBIT CALENDAR</text>
  <text x="362" y="140" fill="white" font-size="24" font-family="SF Pro Display, Arial" font-weight="600">Decision layer on top of time</text>

  <rect x="1182" y="86" width="126" height="52" rx="16" fill="rgba(255,255,255,0.14)"/>
  <text x="1204" y="108" fill="rgba(255,255,255,0.54)" font-size="12" font-family="SF Pro Display, Arial">EVENTS</text>
  <text x="1204" y="130" fill="white" font-size="16" font-family="SF Pro Display, Arial" font-weight="600">7</text>
  <rect x="1324" y="86" width="168" height="52" rx="16" fill="rgba(255,255,255,0.14)"/>
  <text x="1346" y="108" fill="rgba(255,255,255,0.54)" font-size="12" font-family="SF Pro Display, Arial">PROVIDER</text>
  <text x="1346" y="130" fill="white" font-size="16" font-family="SF Pro Display, Arial" font-weight="600">Local</text>

  <rect x="360" y="172" width="786" height="684" rx="30" fill="rgba(255,255,255,0.06)" stroke="rgba(255,255,255,0.12)"/>
  <text x="392" y="228" fill="white" font-size="38" font-family="SF Pro Display, Arial" font-weight="600">Calendar</text>
  <text x="392" y="260" fill="rgba(255,255,255,0.66)" font-size="18" font-family="SF Pro Display, Arial">Your next 7 days, with Orbit handling actions on the right.</text>
  <rect x="1018" y="198" width="96" height="40" rx="14" fill="#4FA0FF"/>
  <text x="1045" y="223" fill="white" font-size="16" font-family="SF Pro Display, Arial" font-weight="600">Refresh</text>

  <g>
    <rect x="392" y="304" width="722" height="118" rx="22" fill="rgba(255,255,255,0.13)" stroke="rgba(255,255,255,0.14)"/>
    <text x="420" y="350" fill="#D5E8FF" font-size="30" font-family="SF Pro Display, Arial" font-weight="700">09:00</text>
    <text x="420" y="380" fill="rgba(255,255,255,0.5)" font-size="14" font-family="SF Pro Display, Arial">Mon Apr 06</text>
    <text x="532" y="346" fill="white" font-size="28" font-family="SF Pro Display, Arial" font-weight="600">Deep Work</text>
    <text x="532" y="378" fill="rgba(255,255,255,0.68)" font-size="18" font-family="SF Pro Display, Arial">09:00 AM - 11:00 AM</text>
    <text x="532" y="406" fill="rgba(255,255,255,0.68)" font-size="16" font-family="SF Pro Display, Arial">Created by Orbit and reserved as a focus block.</text>
    <circle cx="1078" cy="334" r="7" fill="#8ECEFF"/>
  </g>

  <g>
    <rect x="392" y="442" width="722" height="118" rx="22" fill="rgba(255,255,255,0.11)" stroke="rgba(255,255,255,0.12)"/>
    <text x="420" y="488" fill="#D5E8FF" font-size="30" font-family="SF Pro Display, Arial" font-weight="700">13:00</text>
    <text x="420" y="518" fill="rgba(255,255,255,0.5)" font-size="14" font-family="SF Pro Display, Arial">Mon Apr 06</text>
    <text x="532" y="484" fill="white" font-size="28" font-family="SF Pro Display, Arial" font-weight="600">Client Review</text>
    <text x="532" y="516" fill="rgba(255,255,255,0.68)" font-size="18" font-family="SF Pro Display, Arial">01:00 PM - 02:00 PM</text>
    <text x="532" y="544" fill="rgba(255,255,255,0.68)" font-size="16" font-family="SF Pro Display, Arial">Protected event visible inside the calendar workspace.</text>
    <circle cx="1078" cy="472" r="7" fill="#8ECEFF"/>
  </g>

  <g>
    <rect x="392" y="580" width="722" height="118" rx="22" fill="rgba(255,255,255,0.11)" stroke="rgba(255,255,255,0.12)"/>
    <text x="420" y="626" fill="#D5E8FF" font-size="30" font-family="SF Pro Display, Arial" font-weight="700">16:30</text>
    <text x="420" y="656" fill="rgba(255,255,255,0.5)" font-size="14" font-family="SF Pro Display, Arial">Mon Apr 06</text>
    <text x="532" y="622" fill="white" font-size="28" font-family="SF Pro Display, Arial" font-weight="600">Ops Sync</text>
    <text x="532" y="654" fill="rgba(255,255,255,0.68)" font-size="18" font-family="SF Pro Display, Arial">04:30 PM - 05:15 PM</text>
    <text x="532" y="682" fill="rgba(255,255,255,0.68)" font-size="16" font-family="SF Pro Display, Arial">Meeting density and actions stay in one focused workspace.</text>
    <circle cx="1078" cy="610" r="7" fill="#8ECEFF"/>
  </g>

  <rect x="1170" y="172" width="360" height="684" rx="30" fill="rgba(255,255,255,0.08)" stroke="rgba(255,255,255,0.12)"/>
  <text x="1202" y="226" fill="white" font-size="30" font-family="SF Pro Display, Arial" font-weight="600">Ask Orbit</text>

  <rect x="1202" y="252" width="142" height="36" rx="18" fill="rgba(255,255,255,0.10)"/>
  <text x="1220" y="275" fill="white" font-size="14" font-family="SF Pro Display, Arial">What does my day look like?</text>
  <rect x="1202" y="296" width="180" height="36" rx="18" fill="rgba(255,255,255,0.10)"/>
  <text x="1220" y="319" fill="white" font-size="14" font-family="SF Pro Display, Arial">When am I free tomorrow?</text>
  <rect x="1202" y="340" width="154" height="36" rx="18" fill="rgba(255,255,255,0.10)"/>
  <text x="1220" y="363" fill="white" font-size="14" font-family="SF Pro Display, Arial">Block deep work</text>

  <rect x="1202" y="404" width="296" height="58" rx="18" fill="rgba(255,255,255,0.10)" stroke="rgba(255,255,255,0.10)"/>
  <text x="1220" y="439" fill="rgba(255,255,255,0.72)" font-size="16" font-family="SF Pro Display, Arial">Find 2 hours for deep work tomorrow</text>

  <rect x="1202" y="478" width="120" height="44" rx="16" fill="#4FA0FF"/>
  <text x="1230" y="506" fill="white" font-size="16" font-family="SF Pro Display, Arial" font-weight="600">Run Command</text>

  <line x1="1202" y1="556" x2="1498" y2="556" stroke="rgba(255,255,255,0.10)"/>
  <text x="1202" y="606" fill="white" font-size="22" font-family="SF Pro Display, Arial" font-weight="600">I found free time tomorrow.</text>
  <rect x="1202" y="634" width="296" height="82" rx="18" fill="rgba(255,255,255,0.10)" stroke="rgba(255,255,255,0.10)"/>
  <text x="1222" y="668" fill="white" font-size="18" font-family="SF Pro Display, Arial">2026-04-06T09:00:00+05:30</text>
  <text x="1222" y="697" fill="rgba(255,255,255,0.68)" font-size="16" font-family="SF Pro Display, Arial">2026-04-06T11:00:00+05:30</text>
</svg>
